<svg width="1600" height="860" viewBox="0 0 1600 860" fill="none" xmlns="http://www.w3.org/2000/svg" role="img" aria-labelledby="title desc">
  <title id="title">CloudOTP 账号管理页高清预览</title>
  <desc id="desc">账号管理后台，展示搜索、分类筛选、验证码、倒计时、分享链接和编辑操作。</desc>
  <defs>
    <linearGradient id="bg" x1="0" y1="0" x2="1600" y2="860"><stop stop-color="#FFFFFF"/><stop offset="1" stop-color="#F8FAFC"/></linearGradient>
    <linearGradient id="primary" x1="0" y1="0" x2="1" y2="1"><stop stop-color="#8B5CF6"/><stop offset="1" stop-color="#4F46E5"/></linearGradient>
    <filter id="shadow" x="-20%" y="-20%" width="140%" height="150%"><feDropShadow dx="0" dy="28" stdDeviation="36" flood-color="#0F172A" flood-opacity="0.08"/></filter>
  </defs>
  <rect width="1600" height="860" fill="url(#bg)"/>
  <circle cx="1270" cy="130" r="230" fill="#EDE9FE" opacity="0.7"/>
  <g filter="url(#shadow)">
    <rect x="230" y="72" width="1140" height="96" rx="44" fill="white"/>
    <rect x="256" y="104" width="36" height="36" rx="12" fill="url(#primary)"/>
    <text x="268" y="129" fill="white" font-family="Inter, Arial, sans-serif" font-size="20" font-weight="900">0</text>
    <text x="310" y="129" fill="#0F172A" font-family="Inter, Arial, sans-serif" font-size="22" font-weight="900">2FA 管理</text>
    <text x="460" y="129" fill="#4F46E5" font-family="Inter, Arial, sans-serif" font-size="17" font-weight="800">2026/07/12 12:00:00 中国标准时间 (UTC+8)</text>
    <text x="920" y="129" fill="#4F46E5" font-family="Inter, Arial, sans-serif" font-size="18" font-weight="900">▰ 账号管理</text>
    <text x="1086" y="129" fill="#0F172A" font-family="Inter, Arial, sans-serif" font-size="18" font-weight="850">▣ 分类管理</text>
    <text x="1262" y="129" fill="#0F172A" font-family="Inter, Arial, sans-serif" font-size="17" font-weight="850">↪ 退出登录</text>
    <rect x="906" y="158" width="146" height="5" rx="3" fill="#6D5DF6"/>
  </g>
  <g filter="url(#shadow)">
    <rect x="230" y="198" width="1140" height="454" rx="42" fill="white"/>
    <rect x="266" y="236" width="360" height="58" rx="28" fill="white" stroke="#CBD5E1"/>
    <text x="318" y="272" fill="#64748B" font-family="Inter, Arial, sans-serif" font-size="17" font-weight="650">搜索账号、类型或备注</text>
    <circle cx="294" cy="265" r="9" stroke="#94A3B8" stroke-width="3"/>
    <path d="M301 272L310 281" stroke="#94A3B8" stroke-width="3" stroke-linecap="round"/>
    <rect x="654" y="236" width="280" height="58" rx="28" fill="white" stroke="#CBD5E1"/>
    <text x="690" y="272" fill="#0F172A" font-family="Inter, Arial, sans-serif" font-size="17" font-weight="750">全部分类</text>
    <path d="M898 260L910 272L922 260" stroke="#475569" stroke-width="3" stroke-linecap="round" stroke-linejoin="round"/>
    <rect x="1112" y="232" width="214" height="66" rx="30" fill="url(#primary)"/>
    <text x="1219" y="273" text-anchor="middle" fill="white" font-family="Inter, Arial, sans-serif" font-size="18" font-weight="900">+ 添加账号</text>
    <rect x="266" y="332" width="1060" height="254" rx="26" fill="white" stroke="#CBD5E1"/>
    <rect x="266" y="332" width="1060" height="68" rx="26" fill="#FAFBFF"/>
    <path d="M266 400H1326" stroke="#CBD5E1"/>
    <text x="302" y="374" fill="#475569" font-family="Inter, Arial, sans-serif" font-size="17" font-weight="850">名称</text>
    <text x="526" y="374" fill="#475569" font-family="Inter, Arial, sans-serif" font-size="17" font-weight="850">分类</text>
    <text x="674" y="374" fill="#475569" font-family="Inter, Arial, sans-serif" font-size="17" font-weight="850">编号</text>
    <text x="812" y="374" fill="#475569" font-family="Inter, Arial, sans-serif" font-size="17" font-weight="850">验证码</text>
    <text x="976" y="374" fill="#475569" font-family="Inter, Arial, sans-serif" font-size="17" font-weight="850">剩余时间</text>
    <text x="1138" y="374" fill="#475569" font-family="Inter, Arial, sans-serif" font-size="17" font-weight="850">分享链接</text>
    <text x="1268" y="374" fill="#475569" font-family="Inter, Arial, sans-serif" font-size="17" font-weight="850">操作</text>
    <text x="302" y="454" fill="#0F172A" font-family="Inter, Arial, sans-serif" font-size="26" font-weight="900">OpenAI</text>
    <text x="302" y="488" fill="#64748B" font-family="Inter, Arial, sans-serif" font-size="16" font-weight="650">AmMason001@outlook.com</text>
    <rect x="302" y="512" width="58" height="30" rx="15" fill="#DCFCE7"/>
    <text x="331" y="533" text-anchor="middle" fill="#16A34A" font-family="Inter, Arial, sans-serif" font-size="15" font-weight="850">启用</text>
    <rect x="518" y="462" width="56" height="38" rx="12" fill="#DBEAFE"/>
    <text x="546" y="488" text-anchor="middle" fill="#4F46E5" font-family="Inter, Arial, sans-serif" font-size="18" font-weight="900">AI</text>
    <rect x="664" y="456" width="62" height="48" rx="13" fill="#F1F5F9"/>
    <text x="695" y="488" text-anchor="middle" fill="#0F172A" font-family="Inter, Arial, sans-serif" font-size="24" font-weight="950">01</text>
    <text x="802" y="488" fill="#0F172A" font-family="Inter, Arial, sans-serif" font-size="31" font-weight="950" letter-spacing="8">754888</text>
    <circle cx="1028" cy="480" r="36" stroke="#DCFCE7" stroke-width="8"/>
    <path d="M1028 444A36 36 0 0 1 1060 496" stroke="#16A34A" stroke-width="8" stroke-linecap="round"/>
    <text x="1028" y="488" text-anchor="middle" fill="#0F172A" font-family="Inter, Arial, sans-serif" font-size="19" font-weight="900">28秒</text>
    <rect x="1118" y="456" width="146" height="48" rx="24" fill="white" stroke="#CBD5E1"/>
    <text x="1191" y="487" text-anchor="middle" fill="#0F172A" font-family="Inter, Arial, sans-serif" font-size="17" font-weight="900">↗ 分享链接</text>
    <rect x="1252" y="456" width="104" height="48" rx="24" fill="white" stroke="#CBD5E1"/>
    <text x="1304" y="487" text-anchor="middle" fill="#0F172A" font-family="Inter, Arial, sans-serif" font-size="17" font-weight="900">✎ 编辑</text>
  </g>
</svg>
